<svg width="157" height="33" viewBox="0 0 157 33" fill="none" xmlns="http://www.w3.org/2000/svg">
<g clip-path="url(#clip0_22_15)">
<path d="M73.0461 32.9618C73.0461 32.9426 73.3633 32.4198 73.7504 31.8014L74.4484 30.6793L73.9344 30.6538L73.4204 30.6283L73.7758 30.0545L74.1311 29.4807H78.7761L78.408 30.0672L78.04 30.6538H75.8064L75.4637 31.2085C75.2733 31.5145 75.1211 31.7759 75.1211 31.795C75.1211 31.8141 75.8571 31.8269 76.7645 31.8269H78.408L79.8485 29.5062C80.9653 27.7019 81.3016 27.1982 81.346 27.2492C81.3777 27.2811 82.1963 28.5881 83.1608 30.1437L84.9185 32.9745L84.2967 32.9873C83.954 32.9936 83.6494 32.9936 83.6177 32.9809C83.586 32.9681 83.402 32.7067 83.2116 32.3943L82.8626 31.8269H81.8029C81.2191 31.8269 80.7495 31.8078 80.7622 31.7823C80.7686 31.7568 80.9272 31.4954 81.1112 31.1957L81.4412 30.6538L81.7775 30.641L82.1138 30.6283L81.7267 30.0035C81.511 29.6592 81.3206 29.3787 81.3016 29.3787C81.2825 29.3787 80.7622 30.1948 80.1404 31.1893L79.0172 33H76.0285C74.3913 33 73.0461 32.9809 73.0461 32.9618V32.9618ZM0.700806 28.1801V27.1345H36.3626C55.9766 27.1345 72.0244 27.1536 72.0181 27.1727C72.0181 27.1919 71.7325 27.6573 71.3962 28.2056L70.7744 29.2002L35.7408 29.2129L0.707151 29.2257L0.700806 28.1801ZM85.6927 28.2438C85.3627 27.7019 85.0708 27.2365 85.0518 27.1982C85.0264 27.1472 92.1588 27.1345 120.656 27.1345H156.293V29.2257H86.3019L85.6927 28.2438ZM74.899 28.2438C74.918 28.2056 75.083 27.9442 75.2607 27.6573L75.5843 27.1345H80.3434L80.0832 27.5553C79.9373 27.7848 79.7787 28.0526 79.7216 28.1418L79.6264 28.3076H77.2404C75.3558 28.3076 74.8736 28.2948 74.899 28.2438V28.2438ZM100.617 23.8447C99.2721 23.6407 98.0664 23.137 97.1336 22.391C95.4267 21.0267 94.4495 18.8908 94.4558 16.5255C94.4622 14.7403 95.0269 13.1018 96.112 11.7438C97.5905 9.8949 100.129 8.94494 102.972 9.17446C105.097 9.3466 106.753 10.0352 107.946 11.2529C110.174 13.5226 110.415 17.7687 108.492 20.676C107.439 22.2635 105.783 23.3538 103.765 23.7745C103.111 23.9148 101.315 23.9531 100.617 23.8447V23.8447ZM103.879 22.882C104.044 22.8373 104.399 22.6907 104.666 22.5568C105.484 22.1488 106.176 21.3582 106.595 20.3636C107.204 18.9036 107.344 16.3215 106.899 14.5873C106.335 12.3559 104.958 10.7939 103.06 10.2201C102.451 10.0352 101.296 9.99054 100.655 10.118C98.6946 10.5197 97.5017 11.9223 97.1273 14.2813C97.0131 15.0081 96.975 16.0983 97.0448 16.8315C97.2225 18.7378 97.8761 20.3126 98.9421 21.4156C99.6972 22.1934 100.56 22.6716 101.614 22.9011C102.216 23.0286 103.384 23.0158 103.879 22.882V22.882ZM123.449 23.8383C123.22 23.7363 116.158 16.6339 114.311 14.6447L112.966 13.1975L112.953 13.5481C112.928 14.1155 113.143 21.6642 113.194 22.0276C113.302 22.7927 113.499 23.1434 113.879 23.2517C113.987 23.2836 114.292 23.3219 114.552 23.341L115.022 23.3729V23.6662H109.996V23.5131C109.996 23.3665 110.002 23.3601 110.237 23.3601C110.618 23.3601 111.075 23.2709 111.214 23.1625C111.411 23.0158 111.513 22.7353 111.57 22.1998C111.646 21.473 111.779 12.1072 111.716 11.5972C111.582 10.4049 111.214 9.97778 110.193 9.83115L109.787 9.77377V9.39123H111.081C112.35 9.39123 112.376 9.39123 112.496 9.50599C112.566 9.56975 113.118 10.1499 113.727 10.7939C114.336 11.4378 115.751 12.8978 116.868 14.0327C119.032 16.2322 119.755 16.9845 121.558 18.8653C122.179 19.5157 122.712 20.0512 122.744 20.0512C122.801 20.0512 122.789 19.1459 122.655 13.6756C122.579 10.5643 122.56 10.3731 122.294 10.0862C122.084 9.85665 121.875 9.78652 121.374 9.76101L120.904 9.73551V9.39123H125.676V9.74826H125.301C124.686 9.74826 124.426 9.88853 124.242 10.3093C124.108 10.609 124.083 11.3485 123.975 18.113C123.931 20.9884 123.88 23.4366 123.867 23.5578C123.842 23.7554 123.74 23.9339 123.652 23.9276C123.645 23.9212 123.55 23.8829 123.449 23.8383V23.8383ZM0.808679 23.5195C0.808679 23.3729 0.808679 23.3729 1.2021 23.3346C2.11586 23.2517 2.16028 23.1242 2.23642 20.2743C2.29988 18.011 2.25546 10.9214 2.17931 10.5325C2.07778 10.0288 1.76051 9.79927 1.11326 9.75464L0.707151 9.72914V9.38486H3.15652C6.54503 9.38486 7.21131 9.45499 8.11872 9.90765C8.86749 10.2774 9.38782 10.9277 9.54011 11.6673C9.6353 12.12 9.57819 12.9042 9.41955 13.3568C9.21015 13.9498 8.9944 14.2686 8.32812 14.938C7.76971 15.5054 7.71895 15.5692 7.82048 15.5947C7.88393 15.6138 8.20121 15.7604 8.51848 15.9198C9.78759 16.5638 10.6062 17.4627 10.9615 18.6167C11.1138 19.1076 11.1265 20.0448 10.9932 20.5549C10.5491 22.2061 9.21015 23.2836 7.19862 23.5896C6.81789 23.647 6.0945 23.6662 3.75935 23.6662H0.802334L0.808679 23.5195ZM7.05902 22.8437C8.31543 22.5823 8.95633 21.4985 8.785 19.9428C8.62001 18.4573 7.92201 17.2714 6.81154 16.602C6.45619 16.3852 5.98662 16.2769 5.19978 16.2386C4.58426 16.2067 4.57157 16.2067 4.50812 16.3215C4.42563 16.4809 4.47004 21.7599 4.55888 22.0468C4.64137 22.3082 4.87616 22.5632 5.13632 22.6716C5.663 22.8883 6.50696 22.9648 7.05902 22.8437V22.8437ZM6.41812 15.3652C6.74808 15.2504 7.0146 15.0336 7.224 14.7148C7.45244 14.3642 7.54762 14.1028 7.61742 13.5991C7.82682 12.1646 7.07805 10.66 5.97393 10.2711C5.59955 10.1372 4.71117 10.1372 4.57792 10.2711C4.49543 10.3539 4.48908 10.5261 4.48908 12.8404C4.48908 15.2313 4.49543 15.3205 4.59061 15.3907C4.73656 15.4927 6.07546 15.4799 6.41812 15.3652V15.3652ZM10.6506 23.5195C10.6506 23.3729 10.6569 23.3729 10.9932 23.341C11.6532 23.2772 12.0974 22.9585 12.44 22.3018C12.5415 22.1105 13.7408 19.165 15.1178 15.7604C16.4885 12.3495 17.6433 9.50599 17.6814 9.43586C17.7195 9.36573 17.7956 9.26372 17.8527 9.21271C17.9416 9.12983 17.9797 9.12346 18.0812 9.17446C18.2779 9.26372 18.2017 9.0852 20.4417 14.6447C23.2274 21.5112 23.4558 22.0468 23.8873 22.6206C24.1221 22.933 24.4521 23.188 24.6996 23.2581C24.8011 23.29 25.0422 23.3282 25.2326 23.341C25.5689 23.3729 25.5752 23.3793 25.5752 23.5195V23.6662H20.8542V23.5131C20.8542 23.3729 20.8669 23.3601 21.0255 23.3601C21.2412 23.3601 21.3872 23.2135 21.3364 23.0477C21.2349 22.7226 19.7818 18.9992 19.731 18.9418C19.6866 18.8908 19.2424 18.8781 17.4657 18.8908L15.2511 18.9036L14.7307 20.2297C14.1216 21.7726 13.9629 22.2572 13.9249 22.6461C13.8804 23.1434 14.1152 23.3665 14.7054 23.3665C14.9084 23.3665 14.9211 23.3729 14.9211 23.5195V23.6725H10.6569L10.6506 23.5195ZM19.3186 17.8899C19.3376 17.8389 18.1446 14.4789 17.618 13.0891C17.5672 12.9616 17.5482 12.9488 17.4974 13.0126C17.3959 13.1273 15.6762 17.8006 15.708 17.8835C15.746 17.9855 19.2741 17.9919 19.3186 17.8899V17.8899ZM27.0537 23.5131C27.0537 23.3665 27.0601 23.3601 27.2949 23.3601C27.7137 23.3601 28.1261 23.2709 28.253 23.1497C28.4117 23.0031 28.5132 22.7098 28.583 22.2125C28.6211 21.932 28.6465 20.0002 28.6655 16.1047L28.6909 10.4049H28.1134C26.673 10.4113 25.1057 10.4942 24.8899 10.5835C24.6424 10.6855 24.3823 11.0234 24.1919 11.5079C24.084 11.7693 24.0523 11.814 23.9254 11.8267L23.7795 11.8395L23.7477 11.1891C23.7287 10.8321 23.716 10.2073 23.716 9.81202C23.716 8.98319 23.697 9.0087 24.1475 9.18084C24.6171 9.35935 25.3976 9.39123 29.8077 9.39123C34.2115 9.39123 34.9983 9.35935 35.4679 9.18084C35.9311 9.00232 35.9057 8.93219 35.8994 10.1946C35.8994 10.8066 35.8867 11.425 35.8677 11.5717C35.8359 11.8203 35.8232 11.8395 35.7027 11.8395C35.5885 11.8395 35.5504 11.7948 35.4235 11.5079C35.195 10.9788 34.9983 10.7174 34.7445 10.6026C34.5541 10.5197 34.3321 10.4942 33.2914 10.456C32.6188 10.4305 31.8065 10.4113 31.4956 10.4113H30.9245V15.1675C30.9245 19.9683 30.9689 21.8874 31.0768 22.5058C31.191 23.1434 31.3687 23.29 32.1175 23.3474L32.549 23.3793V23.6725H27.0537V23.5131ZM39.8463 23.5131C39.8463 23.3665 39.8527 23.3601 40.0874 23.3601C40.2207 23.3601 40.4682 23.3346 40.6332 23.3091C40.8806 23.2709 40.9695 23.2262 41.0964 23.086C41.439 22.7162 41.4644 22.1551 41.4708 15.7158V10.3922L39.9351 10.4305C38.3043 10.4687 37.765 10.5133 37.5746 10.6408C37.3906 10.762 37.1177 11.17 36.9908 11.5207C36.883 11.8203 36.8639 11.8395 36.7116 11.8395H36.5466V11.2657C36.5466 10.9532 36.534 10.3284 36.5149 9.88215L36.4832 9.07245L36.6545 9.09795C36.7497 9.11071 36.921 9.16171 37.0352 9.19996C37.4477 9.35935 38.3615 9.38486 42.6193 9.38486C46.9977 9.38486 47.7846 9.35298 48.2541 9.17446C48.3937 9.12346 48.5651 9.07883 48.6349 9.07883C48.7491 9.07883 48.7554 9.09158 48.7237 9.2701C48.7047 9.3721 48.692 9.99691 48.692 10.6472V11.8331H48.527C48.3683 11.8331 48.3557 11.814 48.2224 11.4888C48.0257 11.0043 47.7465 10.6536 47.499 10.5707C47.3023 10.507 45.5129 10.4177 44.3136 10.4113H43.7678L43.7869 16.2896C43.8059 22.4229 43.8123 22.5377 44.028 22.9648C44.1613 23.2262 44.3516 23.3027 44.9354 23.3474L45.3923 23.3793V23.6725H39.8463V23.5131ZM50.3545 23.5004V23.3283L50.7479 23.2709C51.0779 23.2199 51.1604 23.188 51.2809 23.0605C51.6172 22.6907 51.6363 22.3974 51.6617 16.8124C51.687 11.9223 51.6553 10.5643 51.5221 10.3029C51.338 9.94591 50.951 9.74826 50.4497 9.74826H50.2022V9.39123H55.4817V9.73551L55.0502 9.76101C54.5108 9.79289 54.3331 9.88853 54.1618 10.2328L54.0349 10.4878V15.8624C54.0349 21.5431 54.0349 21.5813 54.2633 22.034C54.3712 22.2508 54.7202 22.4548 55.1517 22.5441C55.3484 22.5887 55.8561 22.6142 56.6239 22.6142C58.077 22.6142 58.3752 22.5568 58.8067 22.1743C59.0098 21.9958 59.2509 21.5495 59.3397 21.1924C59.3905 20.982 59.4159 20.9565 59.5428 20.9565C59.6824 20.9565 59.6887 20.9693 59.6887 21.1606C59.6887 21.4921 59.492 22.9011 59.4095 23.188C59.2636 23.6725 59.6634 23.6343 54.7012 23.647L50.3481 23.6598L50.3545 23.5004ZM60.9134 23.5195C60.9134 23.3793 60.9198 23.3729 61.2497 23.341C61.6939 23.2964 61.8653 23.2007 61.9795 22.9393C62.2016 22.4293 62.2079 22.3145 62.2079 16.2769V10.5388L62.081 10.2838C61.9097 9.93953 61.6178 9.79289 61.0594 9.76101L60.6596 9.73551V9.39123H64.6509C68.1981 9.39123 68.6803 9.38486 68.9913 9.30835C69.1816 9.26372 69.353 9.23184 69.3657 9.24459C69.3784 9.25734 69.3276 9.90128 69.2514 10.6791L69.1182 12.0945H68.9849C68.858 12.0945 68.8517 12.0754 68.7946 11.6609C68.7184 11.0999 68.5788 10.8385 68.2742 10.6855C67.9062 10.5006 67.5255 10.456 66.0279 10.4241L64.6192 10.3922V12.9743C64.6192 14.3961 64.6383 15.5628 64.6573 15.5755C64.6763 15.5883 65.4822 15.5819 66.4467 15.5628C68.0902 15.5309 68.2108 15.5182 68.4011 15.4162C68.5154 15.3588 68.6613 15.2504 68.7248 15.1739C68.7946 15.1038 68.9024 15.04 68.9722 15.04C69.0928 15.04 69.0992 15.0464 69.0674 15.3333C69.0484 15.4927 68.9976 16.1302 68.9532 16.7487C68.8517 18.1258 68.858 18.1003 68.7057 18.1003C68.5725 18.1003 68.5217 18.0174 68.5217 17.7942C68.5217 17.4627 68.4075 17.1184 68.2298 16.9208C67.9316 16.5893 67.7539 16.5574 66.0787 16.5319L64.6256 16.5064L64.5875 18.5402C64.5367 21.5303 64.5811 22.0021 64.9619 22.3464C65.0697 22.4484 65.2538 22.5568 65.368 22.5823C66.1294 22.7863 67.811 22.7736 68.4646 22.5568C68.9786 22.3847 69.2959 21.8937 69.5053 20.9374C69.5306 20.8226 69.5624 20.7971 69.6956 20.7971H69.8543L69.8225 21.2179C69.7527 22.085 69.5878 23.2135 69.5116 23.3729C69.4672 23.4621 69.3784 23.5641 69.3086 23.596C69.2197 23.6407 68.0331 23.6534 65.0444 23.6534H60.9071L60.9134 23.5195ZM71.7262 23.5259C71.7262 23.3856 71.7325 23.3856 72.145 23.3283C72.513 23.2772 72.5765 23.2517 72.7034 23.1179C73.0397 22.7417 73.0588 22.4293 73.0841 16.8379C73.1095 11.9733 73.0778 10.558 72.9445 10.3029C72.7542 9.93316 72.3734 9.74826 71.8214 9.74826H71.5231V9.39123H75.6668C79.3535 9.39123 79.8485 9.38486 80.1086 9.30835C80.2736 9.26372 80.4196 9.23822 80.4322 9.25097C80.4576 9.27647 80.299 11.1254 80.2165 11.8012C80.1911 12.0243 80.1784 12.0435 80.0452 12.0435C79.9056 12.0435 79.9056 12.0371 79.8738 11.6609C79.8231 11.0361 79.6835 10.8257 79.2076 10.609C78.9728 10.5006 78.8522 10.4942 77.2658 10.4496C75.9333 10.4113 75.5652 10.4177 75.5018 10.4687C75.4383 10.5261 75.4256 10.8704 75.4256 13.0444C75.4256 15.0081 75.4383 15.5628 75.4891 15.5819C75.6033 15.6265 78.9474 15.5564 79.1505 15.5054C79.2583 15.4799 79.4424 15.3652 79.5629 15.2568C79.8104 15.0272 79.9944 14.989 79.9944 15.1739C79.9944 15.2376 79.9373 15.8879 79.8675 16.6148C79.7977 17.3416 79.7406 17.96 79.7406 17.9791C79.7406 17.9983 79.6771 18.0174 79.5946 18.0174C79.455 18.0174 79.4487 18.0046 79.3916 17.6221C79.3154 17.1312 79.1822 16.9144 78.8205 16.7168C78.5603 16.5765 78.5096 16.5638 77.6846 16.5319C76.6122 16.4809 75.6097 16.4745 75.5018 16.5191C75.432 16.5446 75.4193 16.7933 75.4193 18.7761C75.4193 21.9766 75.4954 22.7736 75.8127 23.086C75.9967 23.2581 76.1427 23.3027 76.7265 23.3538L77.1897 23.392V23.6853H71.7262V23.5259ZM82.3359 23.5195C82.3359 23.3793 82.3486 23.3729 82.6468 23.3346C83.4844 23.239 83.5289 23.0796 83.6114 20.1978C83.6748 17.8835 83.6304 10.9277 83.5542 10.5325C83.4527 10.0224 83.1354 9.79927 82.4628 9.75464C82.063 9.72914 82.0377 9.72276 82.0377 9.61438V9.49962L84.5632 9.45499C85.9528 9.42948 87.3742 9.41673 87.7233 9.42311C88.8845 9.44861 89.6332 9.60163 90.363 9.95228C91.41 10.4623 92.089 11.5972 92.089 12.834C92.089 14.192 91.4798 15.346 90.0901 16.6148C89.868 16.8188 89.6713 17.01 89.665 17.0292C89.6586 17.0483 90.1853 17.7496 90.8389 18.5721C93.3771 21.7662 94.1322 22.5696 95.0396 23.0222C95.3633 23.1816 95.9724 23.3538 96.2326 23.3538C96.3405 23.3538 96.3595 23.3793 96.3595 23.5068V23.6598H95.0016C92.8187 23.6598 92.4887 23.5514 91.4798 22.5441C90.8579 21.9256 90.2361 21.1159 88.7893 19.0566C88.3578 18.4446 87.958 17.909 87.9009 17.8771C87.8311 17.8325 87.5012 17.807 86.8349 17.7942L85.8704 17.7751V19.8663C85.8767 23.086 85.9148 23.2071 87.0379 23.3219L87.571 23.3729V23.6662H82.3359V23.5195ZM87.9517 16.8889C88.4213 16.8315 88.7322 16.6721 89.0685 16.3087C89.3921 15.9581 89.6523 15.4289 89.7855 14.8679C89.9061 14.3323 89.9125 13.1401 89.7855 12.6364C89.3858 11.017 88.104 10.1117 86.4541 10.2902C86.2003 10.3157 85.9592 10.3667 85.9211 10.4049C85.8577 10.4623 85.845 10.8704 85.845 13.5481V16.6275L85.9909 16.704C86.3145 16.8698 87.2918 16.9654 87.9517 16.8889V16.8889ZM129.902 23.5131C129.902 23.3665 129.908 23.3601 130.143 23.3601C130.276 23.3601 130.524 23.3346 130.689 23.3091C130.936 23.2709 131.025 23.2262 131.152 23.086C131.495 22.7098 131.52 22.2061 131.526 15.7413V10.3922L129.991 10.4305C128.296 10.4687 127.808 10.5133 127.618 10.6536C127.434 10.7875 127.135 11.2529 127.027 11.5653C126.945 11.814 126.926 11.8331 126.767 11.8331H126.602V11.1509C126.602 10.7747 126.59 10.1563 126.571 9.76739L126.539 9.06608L126.71 9.09158C126.805 9.10433 126.983 9.15533 127.097 9.19996C127.503 9.35298 128.423 9.38486 132.669 9.38486C137.047 9.38486 137.834 9.35935 138.303 9.18084C138.443 9.12983 138.614 9.0852 138.684 9.0852C138.798 9.0852 138.805 9.09795 138.773 9.35298C138.754 9.49962 138.741 10.118 138.741 10.7301V11.8395H138.576C138.418 11.8395 138.405 11.8203 138.272 11.4952C138.075 11.0106 137.796 10.66 137.548 10.5771C137.352 10.5133 135.562 10.4241 134.363 10.4177H133.817L133.836 16.245C133.855 22.3783 133.862 22.5377 134.084 22.984C134.211 23.239 134.407 23.3155 134.991 23.3601L135.448 23.392V23.6853H129.915L129.902 23.5131ZM144.37 23.5195C144.37 23.3793 144.376 23.3729 144.712 23.341C145.214 23.2964 145.55 23.1115 145.702 22.8055L145.823 22.5632V10.5261L145.696 10.2711C145.531 9.94591 145.239 9.78652 144.725 9.74826L144.376 9.72276V9.37848H149.656V9.73551H149.408C148.773 9.73551 148.393 10.0033 148.272 10.5388C148.171 10.9724 148.171 22.1233 148.272 22.5568C148.386 23.0605 148.672 23.2645 149.357 23.341C149.636 23.3729 149.649 23.3793 149.649 23.5195V23.6662H144.37V23.5195ZM151.071 23.5131C151.071 23.3729 151.083 23.3601 151.236 23.3601C151.464 23.3601 151.959 23.2262 152.111 23.1242C152.181 23.0796 152.289 22.9457 152.346 22.831C152.511 22.4994 152.549 21.0203 152.524 15.5819C152.498 10.4177 152.498 10.3603 152.251 10.0925C152.086 9.90765 151.769 9.78014 151.407 9.75464L151.064 9.72914V9.38486H156.293V9.72914L155.944 9.76101C155.303 9.81202 155.005 10.067 154.922 10.6281C154.891 10.8257 154.878 13.1975 154.891 16.7614C154.903 22.3018 154.91 22.5887 154.998 22.7927C155.049 22.9138 155.157 23.0541 155.233 23.1115C155.392 23.2262 155.887 23.3665 156.134 23.3665C156.287 23.3665 156.299 23.3793 156.299 23.5195V23.6725H151.071V23.5131ZM0.707151 4.87094V3.82535H26.1908C44.8339 3.82535 51.6744 3.8126 51.6744 3.76797C51.6744 3.73609 51.4967 3.5257 51.2873 3.29618C50.7733 2.74788 50.5956 2.37172 50.5702 1.80429C50.5512 1.44088 50.5702 1.35162 50.6908 1.07747C50.8558 0.701314 51.2111 0.357033 51.6172 0.165765L51.9091 0.0318779L56.3129 0.0191268L60.7167 0.00637561V1.88717H58.1277V5.91654H56.0401V1.88717H54.6187C53.6097 1.88717 53.1973 1.9063 53.1973 1.94455C53.1973 1.97643 53.3686 2.18682 53.578 2.40997C54.0539 2.92002 54.2316 3.17504 54.3395 3.51295C54.4537 3.86998 54.422 4.52029 54.276 4.85819C54.1301 5.18972 53.7493 5.58501 53.4067 5.75077L53.1211 5.89104L26.9141 5.90379L0.707151 5.91654V4.87094ZM59.9806 5.67427C60.0187 5.54038 60.4248 4.21426 60.8754 2.72875L61.7003 0.0255023H65.038L65.9454 2.93277C66.4404 4.53304 66.8528 5.85916 66.8528 5.87829C66.8528 5.90379 66.3706 5.91654 65.7741 5.90379L64.6954 5.89104L64.5685 5.483L64.4415 5.07496H62.3729L62.246 5.49575L62.1191 5.91654H59.9108L59.9806 5.67427ZM63.9466 3.40456C63.9339 3.37268 63.8133 3.0029 63.6864 2.58849C63.5532 2.17407 63.4389 1.83617 63.4263 1.83617C63.4136 1.83617 63.2993 2.17407 63.1724 2.58849C63.0455 3.0029 62.9313 3.36631 62.9186 3.40456C62.8996 3.45556 63.0265 3.46832 63.4326 3.46832C63.8387 3.46832 63.9656 3.45556 63.9466 3.40456V3.40456ZM67.3097 2.95827V0L69.6322 0.0127512L71.9546 0.0255023L72.31 0.191267C72.7288 0.38891 73.1032 0.733192 73.2872 1.0966C73.3887 1.29424 73.4268 1.45363 73.4395 1.77241C73.4839 2.52473 73.2682 2.99652 72.7098 3.39818C72.5321 3.5257 72.3861 3.64683 72.3861 3.66596C72.3861 3.8126 72.5448 3.82535 74.074 3.82535H75.635V5.91654H73.7377C71.2312 5.91654 71.4216 5.97392 70.3175 4.87732L69.6449 4.20788V5.91654H67.3097V2.95827ZM71.1361 2.39084C71.3201 2.30796 71.4089 2.06569 71.3137 1.89355C71.1932 1.6704 71.0409 1.63215 70.3429 1.63215H69.6956V2.44822H70.3556C70.7299 2.44822 71.0599 2.42272 71.1361 2.39084V2.39084ZM78.408 5.87829C78.3763 5.82091 76.5932 0.0828826 76.5932 0.0382535C76.5932 0.0191268 77.1262 0 77.7862 0H78.9791L79.1568 0.573802C79.252 0.886206 79.3599 1.24324 79.3979 1.36437C79.4297 1.48551 79.4741 1.56839 79.4868 1.55564C79.4995 1.54289 79.6073 1.19223 79.7279 0.777821L79.9436 0.0255023L81.1874 0.0127512L82.4311 0L82.6786 0.790572C82.8118 1.22411 82.9387 1.56202 82.9578 1.54289C82.9768 1.52376 83.091 1.16673 83.2116 0.752319L83.4337 0H85.68L85.6356 0.165765C85.6102 0.255023 85.2041 1.58114 84.7345 3.11128L83.8842 5.89104L82.8689 5.90379L81.8536 5.91654L81.5364 4.85819C81.3587 4.27802 81.2001 3.76797 81.181 3.72334C81.1556 3.67871 81.0541 3.92736 80.9018 4.4119C80.7686 4.83269 80.6099 5.33636 80.5465 5.52763L80.4322 5.88466L79.436 5.89741C78.8839 5.91654 78.4207 5.90379 78.408 5.87829V5.87829ZM84.9376 5.85278C84.9503 5.81453 85.3564 4.48841 85.845 2.89451L86.727 0H90.0521L90.3059 0.803323C90.9912 2.9774 91.8859 5.86553 91.8859 5.89104C91.8859 5.90379 91.3973 5.91654 90.8072 5.91654H89.7284L89.6015 5.49575L89.4746 5.07496H87.3933L87.26 5.483L87.1268 5.89104L86.0226 5.90379C85.1406 5.91654 84.9185 5.90379 84.9376 5.85278V5.85278ZM88.9352 3.40456C88.9352 3.32168 88.4911 1.8808 88.453 1.84892C88.4213 1.81704 88.4213 1.81704 88.1801 2.60124C88.0723 2.95189 87.9644 3.2898 87.9453 3.35356C87.9073 3.46832 87.9136 3.46832 88.4213 3.46832C88.802 3.46832 88.9352 3.45556 88.9352 3.40456V3.40456ZM92.5903 2.95827V0H94.8175C96.7148 0 97.0829 0.0127512 97.3177 0.0828826C98.3076 0.376159 98.8469 1.11573 98.7708 2.07206C98.7264 2.68412 98.4535 3.12403 97.9142 3.47469C97.4255 3.79347 97.5588 3.82535 99.4561 3.82535C100.332 3.82535 101.068 3.8126 101.081 3.79347C101.1 3.77434 100.935 3.56395 100.719 3.32168C100.256 2.81163 100.141 2.62674 100.027 2.25058C99.8686 1.70228 99.9574 1.17948 100.287 0.745943C100.522 0.433539 100.789 0.242272 101.188 0.108385C101.474 0.0127512 101.607 0.00637561 103.536 0.00637561H105.58V1.88717H104.082C103.01 1.88717 102.584 1.9063 102.584 1.94455C102.584 1.97643 102.788 2.21233 103.035 2.47373C103.301 2.75425 103.543 3.06028 103.619 3.21967C104.082 4.17601 103.727 5.28536 102.807 5.73802L102.508 5.88466H99.7417C97.14 5.88466 96.9623 5.87829 96.7212 5.78903C96.5181 5.71252 96.3087 5.534 95.7186 4.95383L94.9698 4.21426V5.91654H92.5839L92.5903 2.95827ZM96.5435 2.32709C96.6133 2.26333 96.6514 2.1677 96.6514 2.04019C96.6514 1.70228 96.5499 1.65765 95.7059 1.63852L94.9762 1.6194V2.44822L95.7059 2.4291C96.3405 2.4291 96.4483 2.40997 96.5435 2.32709ZM103.771 5.66789C104.158 5.25348 104.368 4.71155 104.368 4.11863V3.82535H156.299V5.91654H103.543L103.771 5.66789Z" fill="white"/>
</g>
<defs>
<clipPath id="clip0_22_15">
<rect width="157" height="33" fill="white"/>
</clipPath>
</defs>
</svg>
